<mxfile host="65bd71144e">
    <diagram id="rEqAZFlknvCbAFtpOsBf" name="Context Diagram">
        <mxGraphModel dx="2026" dy="1152" grid="1" gridSize="10" guides="1" tooltips="1" connect="1" arrows="1" fold="1" page="1" pageScale="1" pageWidth="10000" pageHeight="10000" math="0" shadow="0">
            <root>
                <mxCell id="0"/>
                <mxCell id="1" parent="0"/>
                <mxCell id="3" value="0" style="swimlane;fontStyle=0;childLayout=stackLayout;horizontal=1;startSize=30;horizontalStack=0;resizeParent=1;resizeParentMax=0;resizeLast=0;collapsible=1;marginBottom=0;whiteSpace=wrap;html=1;" parent="1" vertex="1">
                    <mxGeometry x="470" y="320" width="140" height="90" as="geometry"/>
                </mxCell>
                <mxCell id="5" value="Theme Park System&lt;br&gt;(TPS)" style="text;strokeColor=none;fillColor=none;align=center;verticalAlign=middle;spacingLeft=4;spacingRight=4;overflow=hidden;points=[[0,0.5],[1,0.5]];portConstraint=eastwest;rotatable=0;whiteSpace=wrap;html=1;" parent="3" vertex="1">
                    <mxGeometry y="30" width="140" height="60" as="geometry"/>
                </mxCell>
                <mxCell id="6" value="User" style="rounded=0;whiteSpace=wrap;html=1;" parent="1" vertex="1">
                    <mxGeometry x="200" y="335" width="120" height="60" as="geometry"/>
                </mxCell>
                <mxCell id="7" value="Theme Park API" style="rounded=0;whiteSpace=wrap;html=1;" parent="1" vertex="1">
                    <mxGeometry x="760" y="335" width="120" height="60" as="geometry"/>
                </mxCell>
                <mxCell id="8" value="User Inputs" style="endArrow=classic;html=1;entryX=0;entryY=0.5;entryDx=0;entryDy=0;exitX=1;exitY=0.75;exitDx=0;exitDy=0;" parent="1" source="6" target="5" edge="1">
                    <mxGeometry x="-0.0667" y="5" width="50" height="50" relative="1" as="geometry">
                        <mxPoint x="320" y="365" as="sourcePoint"/>
                        <mxPoint x="470" y="365" as="targetPoint"/>
                        <mxPoint as="offset"/>
                    </mxGeometry>
                </mxCell>
                <mxCell id="9" value="TPS Outputs" style="endArrow=classic;html=1;entryX=1;entryY=0.25;entryDx=0;entryDy=0;exitX=-0.014;exitY=0;exitDx=0;exitDy=0;exitPerimeter=0;" parent="1" source="5" target="6" edge="1">
                    <mxGeometry width="50" height="50" relative="1" as="geometry">
                        <mxPoint x="370" y="380" as="sourcePoint"/>
                        <mxPoint x="420" y="330" as="targetPoint"/>
                    </mxGeometry>
                </mxCell>
                <mxCell id="10" value="TP API Outputs" style="endArrow=classic;html=1;entryX=1;entryY=0.25;entryDx=0;entryDy=0;exitX=-0.014;exitY=0;exitDx=0;exitDy=0;exitPerimeter=0;" parent="1" edge="1">
                    <mxGeometry width="50" height="50" relative="1" as="geometry">
                        <mxPoint x="758.04" y="380" as="sourcePoint"/>
                        <mxPoint x="610" y="380" as="targetPoint"/>
                        <Array as="points">
                            <mxPoint x="740" y="380"/>
                        </Array>
                    </mxGeometry>
                </mxCell>
                <mxCell id="11" value="TPS Inputs" style="endArrow=classic;html=1;entryX=0;entryY=0.5;entryDx=0;entryDy=0;exitX=1;exitY=0.75;exitDx=0;exitDy=0;" parent="1" edge="1">
                    <mxGeometry x="-0.0667" y="5" width="50" height="50" relative="1" as="geometry">
                        <mxPoint x="610" y="350" as="sourcePoint"/>
                        <mxPoint x="760" y="350" as="targetPoint"/>
                        <mxPoint as="offset"/>
                    </mxGeometry>
                </mxCell>
            </root>
        </mxGraphModel>
    </diagram>
    <diagram id="eP2jH_ZC3hxlJ2tK7cWk" name="UC1_L0 - Register User">
        <mxGraphModel dx="2026" dy="1152" grid="1" gridSize="10" guides="1" tooltips="1" connect="1" arrows="1" fold="1" page="1" pageScale="1" pageWidth="10000" pageHeight="10000" math="0" shadow="0">
            <root>
                <mxCell id="0"/>
                <mxCell id="1" parent="0"/>
                <mxCell id="1VkS7HZ8YH6FrUyXxNVz-3" value="User" style="rounded=0;whiteSpace=wrap;html=1;" parent="1" vertex="1">
                    <mxGeometry x="100" y="610" width="120" height="60" as="geometry"/>
                </mxCell>
                <mxCell id="1VkS7HZ8YH6FrUyXxNVz-5" value="Username, Email, Phone Number, and Password" style="endArrow=classic;html=1;exitX=0.25;exitY=0;exitDx=0;exitDy=0;entryX=0.25;entryY=1;entryDx=0;entryDy=0;" parent="1" source="CnnORIVMjrC5noP7R3JH-1" target="75RbH9ikUjKpyGF68XIJ-1" edge="1">
                    <mxGeometry y="100" width="50" height="50" relative="1" as="geometry">
                        <mxPoint x="320" y="365" as="sourcePoint"/>
                        <mxPoint x="600" y="540" as="targetPoint"/>
                        <mxPoint as="offset"/>
                    </mxGeometry>
                </mxCell>
                <mxCell id="1VkS7HZ8YH6FrUyXxNVz-6" value="Account Verified" style="endArrow=classic;html=1;entryX=0.75;entryY=1;entryDx=0;entryDy=0;exitX=0.75;exitY=0;exitDx=0;exitDy=0;" parent="1" source="75RbH9ikUjKpyGF68XIJ-12" target="CnnORIVMjrC5noP7R3JH-1" edge="1">
                    <mxGeometry width="50" height="50" relative="1" as="geometry">
                        <mxPoint x="130" y="680" as="sourcePoint"/>
                        <mxPoint x="420" y="330" as="targetPoint"/>
                        <Array as="points"/>
                    </mxGeometry>
                </mxCell>
                <mxCell id="75RbH9ikUjKpyGF68XIJ-1" value="1" style="swimlane;whiteSpace=wrap;html=1;" parent="1" vertex="1">
                    <mxGeometry x="530" y="440" width="200" height="80" as="geometry"/>
                </mxCell>
                <mxCell id="75RbH9ikUjKpyGF68XIJ-3" value="User Information Validation" style="text;html=1;align=center;verticalAlign=middle;resizable=0;points=[];autosize=1;strokeColor=none;fillColor=none;" parent="75RbH9ikUjKpyGF68XIJ-1" vertex="1">
                    <mxGeometry x="15" y="35" width="170" height="30" as="geometry"/>
                </mxCell>
                <mxCell id="75RbH9ikUjKpyGF68XIJ-4" value="D1" style="swimlane;horizontal=0;whiteSpace=wrap;html=1;startSize=23;" parent="1" vertex="1">
                    <mxGeometry x="920" y="600" width="200" height="60" as="geometry"/>
                </mxCell>
                <mxCell id="75RbH9ikUjKpyGF68XIJ-5" value="User Information &lt;br&gt;Data Store" style="text;html=1;align=center;verticalAlign=middle;resizable=0;points=[];autosize=1;strokeColor=none;fillColor=none;" parent="75RbH9ikUjKpyGF68XIJ-4" vertex="1">
                    <mxGeometry x="45" y="10" width="110" height="40" as="geometry"/>
                </mxCell>
                <mxCell id="75RbH9ikUjKpyGF68XIJ-7" value="User Inputted Username, Email, Phone Number, and Password" style="endArrow=classic;html=1;exitX=1;exitY=0.5;exitDx=0;exitDy=0;" parent="1" source="75RbH9ikUjKpyGF68XIJ-1" edge="1">
                    <mxGeometry x="-0.0732" width="50" height="50" relative="1" as="geometry">
                        <mxPoint x="650" y="505" as="sourcePoint"/>
                        <mxPoint x="1080" y="600" as="targetPoint"/>
                        <Array as="points">
                            <mxPoint x="1080" y="480"/>
                        </Array>
                        <mxPoint as="offset"/>
                    </mxGeometry>
                </mxCell>
                <mxCell id="75RbH9ikUjKpyGF68XIJ-8" value="User Information Validity (T/F)" style="endArrow=classic;html=1;entryX=1;entryY=0.75;entryDx=0;entryDy=0;exitX=0.25;exitY=0;exitDx=0;exitDy=0;" parent="1" source="75RbH9ikUjKpyGF68XIJ-4" target="75RbH9ikUjKpyGF68XIJ-1" edge="1">
                    <mxGeometry width="50" height="50" relative="1" as="geometry">
                        <mxPoint x="580" y="620" as="sourcePoint"/>
                        <mxPoint x="630" y="570" as="targetPoint"/>
                        <Array as="points">
                            <mxPoint x="970" y="500"/>
                        </Array>
                    </mxGeometry>
                </mxCell>
                <mxCell id="75RbH9ikUjKpyGF68XIJ-10" value="User Information Validity (T/F);&lt;br&gt;Emailed Verification" style="endArrow=classic;html=1;entryX=0.75;entryY=0;entryDx=0;entryDy=0;exitX=0.75;exitY=1;exitDx=0;exitDy=0;" parent="1" target="CnnORIVMjrC5noP7R3JH-1" edge="1" source="75RbH9ikUjKpyGF68XIJ-1">
                    <mxGeometry y="30" width="50" height="50" relative="1" as="geometry">
                        <mxPoint x="710" y="530" as="sourcePoint"/>
                        <mxPoint x="680" y="600" as="targetPoint"/>
                        <Array as="points"/>
                        <mxPoint as="offset"/>
                    </mxGeometry>
                </mxCell>
                <mxCell id="75RbH9ikUjKpyGF68XIJ-12" value="2" style="swimlane;whiteSpace=wrap;html=1;" parent="1" vertex="1">
                    <mxGeometry x="530" y="790" width="200" height="80" as="geometry"/>
                </mxCell>
                <mxCell id="75RbH9ikUjKpyGF68XIJ-13" value="Email Verification" style="text;html=1;align=center;verticalAlign=middle;resizable=0;points=[];autosize=1;strokeColor=none;fillColor=none;" parent="75RbH9ikUjKpyGF68XIJ-12" vertex="1">
                    <mxGeometry x="40" y="35" width="120" height="30" as="geometry"/>
                </mxCell>
                <mxCell id="75RbH9ikUjKpyGF68XIJ-14" value="Positive Verification Link Interaction" style="endArrow=classic;html=1;exitX=0.25;exitY=1;exitDx=0;exitDy=0;entryX=0.25;entryY=0;entryDx=0;entryDy=0;" parent="1" source="CnnORIVMjrC5noP7R3JH-1" target="75RbH9ikUjKpyGF68XIJ-12" edge="1">
                    <mxGeometry x="0.3125" width="50" height="50" relative="1" as="geometry">
                        <mxPoint x="540" y="720" as="sourcePoint"/>
                        <mxPoint x="510" y="610" as="targetPoint"/>
                        <Array as="points"/>
                        <mxPoint as="offset"/>
                    </mxGeometry>
                </mxCell>
                <mxCell id="75RbH9ikUjKpyGF68XIJ-15" value="Positive Verification Link Interaction" style="endArrow=classic;html=1;entryX=0.25;entryY=1;entryDx=0;entryDy=0;exitX=1;exitY=0.25;exitDx=0;exitDy=0;" parent="1" source="75RbH9ikUjKpyGF68XIJ-12" target="75RbH9ikUjKpyGF68XIJ-4" edge="1">
                    <mxGeometry x="-0.3333" width="50" height="50" relative="1" as="geometry">
                        <mxPoint x="580" y="620" as="sourcePoint"/>
                        <mxPoint x="630" y="570" as="targetPoint"/>
                        <Array as="points">
                            <mxPoint x="970" y="810"/>
                        </Array>
                        <mxPoint as="offset"/>
                    </mxGeometry>
                </mxCell>
                <mxCell id="75RbH9ikUjKpyGF68XIJ-16" value="Account Verified" style="endArrow=classic;html=1;entryX=1;entryY=0.75;entryDx=0;entryDy=0;exitX=0.75;exitY=1;exitDx=0;exitDy=0;" parent="1" source="75RbH9ikUjKpyGF68XIJ-4" target="75RbH9ikUjKpyGF68XIJ-12" edge="1">
                    <mxGeometry x="0.1321" width="50" height="50" relative="1" as="geometry">
                        <mxPoint x="740" y="820" as="sourcePoint"/>
                        <mxPoint x="980" y="670" as="targetPoint"/>
                        <Array as="points">
                            <mxPoint x="1070" y="850"/>
                        </Array>
                        <mxPoint as="offset"/>
                    </mxGeometry>
                </mxCell>
                <mxCell id="CnnORIVMjrC5noP7R3JH-1" value="0" style="swimlane;whiteSpace=wrap;html=1;" vertex="1" parent="1">
                    <mxGeometry x="530" y="600" width="200" height="80" as="geometry"/>
                </mxCell>
                <mxCell id="CnnORIVMjrC5noP7R3JH-2" value="User Interactor" style="text;html=1;align=center;verticalAlign=middle;resizable=0;points=[];autosize=1;strokeColor=none;fillColor=none;" vertex="1" parent="CnnORIVMjrC5noP7R3JH-1">
                    <mxGeometry x="50" y="35" width="100" height="30" as="geometry"/>
                </mxCell>
                <mxCell id="CnnORIVMjrC5noP7R3JH-5" value="Account Verified" style="endArrow=classic;html=1;exitX=0;exitY=0.25;exitDx=0;exitDy=0;" edge="1" parent="1" source="CnnORIVMjrC5noP7R3JH-1">
                    <mxGeometry x="-0.0323" width="50" height="50" relative="1" as="geometry">
                        <mxPoint x="380" y="670" as="sourcePoint"/>
                        <mxPoint x="220" y="620" as="targetPoint"/>
                        <mxPoint as="offset"/>
                    </mxGeometry>
                </mxCell>
                <mxCell id="CnnORIVMjrC5noP7R3JH-6" value="Username, Email, Phone Number, and Password" style="endArrow=classic;html=1;exitX=1;exitY=0.75;exitDx=0;exitDy=0;" edge="1" parent="1" source="1VkS7HZ8YH6FrUyXxNVz-3">
                    <mxGeometry x="-0.0323" y="-3" width="50" height="50" relative="1" as="geometry">
                        <mxPoint x="540" y="630" as="sourcePoint"/>
                        <mxPoint x="530" y="655" as="targetPoint"/>
                        <mxPoint as="offset"/>
                    </mxGeometry>
                </mxCell>
            </root>
        </mxGraphModel>
    </diagram>
    <diagram id="YFpbzEVkjCz2KmWxG3g_" name="UC2_L0 - Requesting Wait Times">
        <mxGraphModel dx="2026" dy="1152" grid="1" gridSize="10" guides="1" tooltips="1" connect="1" arrows="1" fold="1" page="1" pageScale="1" pageWidth="10000" pageHeight="10000" math="0" shadow="0">
            <root>
                <mxCell id="0"/>
                <mxCell id="1" parent="0"/>
                <mxCell id="guayzxKyNLRvibMCaLSz-1" value="3" style="swimlane;fontStyle=0;childLayout=stackLayout;horizontal=1;startSize=30;horizontalStack=0;resizeParent=1;resizeParentMax=0;resizeLast=0;collapsible=1;marginBottom=0;whiteSpace=wrap;html=1;" parent="1" vertex="1">
                    <mxGeometry x="350" y="310" width="140" height="90" as="geometry"/>
                </mxCell>
                <mxCell id="guayzxKyNLRvibMCaLSz-2" value="Update Wait Times" style="text;strokeColor=none;fillColor=none;align=center;verticalAlign=middle;spacingLeft=4;spacingRight=4;overflow=hidden;points=[[0,0.5],[1,0.5]];portConstraint=eastwest;rotatable=0;whiteSpace=wrap;html=1;" parent="guayzxKyNLRvibMCaLSz-1" vertex="1">
                    <mxGeometry y="30" width="140" height="60" as="geometry"/>
                </mxCell>
                <mxCell id="guayzxKyNLRvibMCaLSz-4" value="Theme Park API" style="rounded=0;whiteSpace=wrap;html=1;" parent="1" vertex="1">
                    <mxGeometry x="760" y="335" width="120" height="60" as="geometry"/>
                </mxCell>
                <mxCell id="guayzxKyNLRvibMCaLSz-7" value="Wait Time Information" style="endArrow=classic;html=1;entryX=1.029;entryY=0.667;entryDx=0;entryDy=0;exitX=-0.014;exitY=0;exitDx=0;exitDy=0;exitPerimeter=0;entryPerimeter=0;" parent="1" target="guayzxKyNLRvibMCaLSz-2" edge="1">
                    <mxGeometry width="50" height="50" relative="1" as="geometry">
                        <mxPoint x="758.04" y="380" as="sourcePoint"/>
                        <mxPoint x="610" y="380" as="targetPoint"/>
                        <Array as="points">
                            <mxPoint x="740" y="380"/>
                        </Array>
                    </mxGeometry>
                </mxCell>
                <mxCell id="guayzxKyNLRvibMCaLSz-8" value="Request for Wait Times" style="endArrow=classic;html=1;entryX=0;entryY=0.5;entryDx=0;entryDy=0;exitX=1.021;exitY=0.183;exitDx=0;exitDy=0;exitPerimeter=0;" parent="1" source="guayzxKyNLRvibMCaLSz-2" edge="1">
                    <mxGeometry x="-0.0667" y="5" width="50" height="50" relative="1" as="geometry">
                        <mxPoint x="610" y="350" as="sourcePoint"/>
                        <mxPoint x="760" y="350" as="targetPoint"/>
                        <mxPoint as="offset"/>
                    </mxGeometry>
                </mxCell>
                <mxCell id="BWtOLn0i1tjDLdc3kNef-3" value="&amp;lt;Timer Goes Off&amp;gt;" style="endArrow=classic;html=1;exitX=1;exitY=0.5;exitDx=0;exitDy=0;entryX=0;entryY=0.5;entryDx=0;entryDy=0;" parent="1" target="guayzxKyNLRvibMCaLSz-2" edge="1">
                    <mxGeometry width="50" height="50" relative="1" as="geometry">
                        <mxPoint x="180" y="370" as="sourcePoint"/>
                        <mxPoint x="630" y="390" as="targetPoint"/>
                        <mxPoint as="offset"/>
                    </mxGeometry>
                </mxCell>
                <mxCell id="BWtOLn0i1tjDLdc3kNef-4" value="Timer Reset" style="endArrow=classic;html=1;entryX=0.5;entryY=0;entryDx=0;entryDy=0;" parent="1" target="pqEAysRe4szps_PyFMCJ-1" edge="1">
                    <mxGeometry x="0.1538" width="50" height="50" relative="1" as="geometry">
                        <mxPoint x="260" y="360" as="sourcePoint"/>
                        <mxPoint x="180" y="332.5" as="targetPoint"/>
                        <Array as="points">
                            <mxPoint x="260" y="280"/>
                            <mxPoint x="120" y="280"/>
                        </Array>
                        <mxPoint as="offset"/>
                    </mxGeometry>
                </mxCell>
                <mxCell id="2aotZiEohpC-sTqgCGru-1" value="D3" style="swimlane;horizontal=0;whiteSpace=wrap;html=1;startSize=23;" parent="1" vertex="1">
                    <mxGeometry x="320" y="520" width="200" height="60" as="geometry"/>
                </mxCell>
                <mxCell id="2aotZiEohpC-sTqgCGru-2" value="Wait Times&lt;br&gt;Data Store" style="text;html=1;align=center;verticalAlign=middle;resizable=0;points=[];autosize=1;strokeColor=none;fillColor=none;" parent="2aotZiEohpC-sTqgCGru-1" vertex="1">
                    <mxGeometry x="60" y="10" width="80" height="40" as="geometry"/>
                </mxCell>
                <mxCell id="iPxPPgNgrPRq0Nnf-a5c-1" value="" style="endArrow=classic;html=1;entryX=0.5;entryY=0;entryDx=0;entryDy=0;exitX=0.486;exitY=1;exitDx=0;exitDy=0;exitPerimeter=0;" parent="1" source="guayzxKyNLRvibMCaLSz-2" target="2aotZiEohpC-sTqgCGru-1" edge="1">
                    <mxGeometry width="50" height="50" relative="1" as="geometry">
                        <mxPoint x="580" y="440" as="sourcePoint"/>
                        <mxPoint x="630" y="390" as="targetPoint"/>
                    </mxGeometry>
                </mxCell>
                <mxCell id="iPxPPgNgrPRq0Nnf-a5c-2" value="Updated Wait Times + Time Stamp" style="edgeLabel;html=1;align=center;verticalAlign=middle;resizable=0;points=[];" parent="iPxPPgNgrPRq0Nnf-a5c-1" vertex="1" connectable="0">
                    <mxGeometry x="0.2" y="1" relative="1" as="geometry">
                        <mxPoint x="49" as="offset"/>
                    </mxGeometry>
                </mxCell>
                <mxCell id="pqEAysRe4szps_PyFMCJ-1" value="Timer" style="rounded=0;whiteSpace=wrap;html=1;" vertex="1" parent="1">
                    <mxGeometry x="60" y="320" width="120" height="60" as="geometry"/>
                </mxCell>
            </root>
        </mxGraphModel>
    </diagram>
    <diagram id="dUlOTWxmPTBbQ9fdcm_A" name="UC2_L1P5 - Update Wait Time">
        <mxGraphModel dx="2026" dy="1152" grid="1" gridSize="10" guides="1" tooltips="1" connect="1" arrows="1" fold="1" page="1" pageScale="1" pageWidth="10000" pageHeight="10000" math="0" shadow="0">
            <root>
                <mxCell id="0"/>
                <mxCell id="1" parent="0"/>
                <mxCell id="ELSqUzEcS-WORspgMOMI-14" value="3.1" style="swimlane;fontStyle=0;childLayout=stackLayout;horizontal=1;startSize=30;horizontalStack=0;resizeParent=1;resizeParentMax=0;resizeLast=0;collapsible=1;marginBottom=0;whiteSpace=wrap;html=1;" parent="1" vertex="1">
                    <mxGeometry x="790" y="600" width="140" height="90" as="geometry"/>
                </mxCell>
                <mxCell id="ELSqUzEcS-WORspgMOMI-15" value="Wait Time Request" style="text;strokeColor=none;fillColor=none;align=center;verticalAlign=middle;spacingLeft=4;spacingRight=4;overflow=hidden;points=[[0,0.5],[1,0.5]];portConstraint=eastwest;rotatable=0;whiteSpace=wrap;html=1;" parent="ELSqUzEcS-WORspgMOMI-14" vertex="1">
                    <mxGeometry y="30" width="140" height="60" as="geometry"/>
                </mxCell>
                <mxCell id="ELSqUzEcS-WORspgMOMI-16" value="Theme Park API" style="rounded=0;whiteSpace=wrap;html=1;" parent="1" vertex="1">
                    <mxGeometry x="1200" y="630" width="120" height="60" as="geometry"/>
                </mxCell>
                <mxCell id="ELSqUzEcS-WORspgMOMI-17" value="Wait Time Information" style="endArrow=classic;html=1;entryX=0.5;entryY=0;entryDx=0;entryDy=0;exitX=0.5;exitY=1;exitDx=0;exitDy=0;" parent="1" source="ELSqUzEcS-WORspgMOMI-16" target="ELSqUzEcS-WORspgMOMI-29" edge="1">
                    <mxGeometry width="50" height="50" relative="1" as="geometry">
                        <mxPoint x="1198.04" y="670" as="sourcePoint"/>
                        <mxPoint x="1050" y="670" as="targetPoint"/>
                        <Array as="points">
                            <mxPoint x="1260" y="740"/>
                            <mxPoint x="860" y="740"/>
                        </Array>
                    </mxGeometry>
                </mxCell>
                <mxCell id="ELSqUzEcS-WORspgMOMI-18" value="Request for Wait Times" style="endArrow=classic;html=1;entryX=0;entryY=0.5;entryDx=0;entryDy=0;exitX=1;exitY=0.5;exitDx=0;exitDy=0;" parent="1" source="ELSqUzEcS-WORspgMOMI-15" target="ELSqUzEcS-WORspgMOMI-16" edge="1">
                    <mxGeometry x="-0.0667" y="5" width="50" height="50" relative="1" as="geometry">
                        <mxPoint x="1050" y="640" as="sourcePoint"/>
                        <mxPoint x="1200" y="640" as="targetPoint"/>
                        <mxPoint as="offset"/>
                    </mxGeometry>
                </mxCell>
                <mxCell id="ELSqUzEcS-WORspgMOMI-19" value="&amp;lt;Timer Goes Off&amp;gt;" style="endArrow=classic;html=1;exitX=0.5;exitY=1;exitDx=0;exitDy=0;entryX=0.5;entryY=0;entryDx=0;entryDy=0;" parent="1" target="ELSqUzEcS-WORspgMOMI-14" edge="1" source="6vn4g3Et8K_ua_Tb3usd-1">
                    <mxGeometry width="50" height="50" relative="1" as="geometry">
                        <mxPoint x="620" y="660" as="sourcePoint"/>
                        <mxPoint x="1070" y="680" as="targetPoint"/>
                    </mxGeometry>
                </mxCell>
                <mxCell id="ELSqUzEcS-WORspgMOMI-21" value="D3" style="swimlane;horizontal=0;whiteSpace=wrap;html=1;startSize=23;" parent="1" vertex="1">
                    <mxGeometry x="760" y="970" width="200" height="60" as="geometry"/>
                </mxCell>
                <mxCell id="ELSqUzEcS-WORspgMOMI-22" value="Wait Times&lt;br&gt;Data Store" style="text;html=1;align=center;verticalAlign=middle;resizable=0;points=[];autosize=1;strokeColor=none;fillColor=none;" parent="ELSqUzEcS-WORspgMOMI-21" vertex="1">
                    <mxGeometry x="60" y="10" width="80" height="40" as="geometry"/>
                </mxCell>
                <mxCell id="ELSqUzEcS-WORspgMOMI-23" value="" style="endArrow=classic;html=1;" parent="1" source="ELSqUzEcS-WORspgMOMI-30" edge="1">
                    <mxGeometry width="50" height="50" relative="1" as="geometry">
                        <mxPoint x="1020" y="730" as="sourcePoint"/>
                        <mxPoint x="860" y="970" as="targetPoint"/>
                    </mxGeometry>
                </mxCell>
                <mxCell id="ELSqUzEcS-WORspgMOMI-24" value="Updated Wait Times + Time Stamp" style="edgeLabel;html=1;align=center;verticalAlign=middle;resizable=0;points=[];" parent="ELSqUzEcS-WORspgMOMI-23" vertex="1" connectable="0">
                    <mxGeometry x="0.2" y="1" relative="1" as="geometry">
                        <mxPoint x="-1" y="-16" as="offset"/>
                    </mxGeometry>
                </mxCell>
                <mxCell id="ELSqUzEcS-WORspgMOMI-29" value="3.2" style="swimlane;fontStyle=0;childLayout=stackLayout;horizontal=1;startSize=30;horizontalStack=0;resizeParent=1;resizeParentMax=0;resizeLast=0;collapsible=1;marginBottom=0;whiteSpace=wrap;html=1;" parent="1" vertex="1">
                    <mxGeometry x="790" y="770" width="140" height="90" as="geometry"/>
                </mxCell>
                <mxCell id="ELSqUzEcS-WORspgMOMI-30" value="Store Wait Times" style="text;strokeColor=none;fillColor=none;align=center;verticalAlign=middle;spacingLeft=4;spacingRight=4;overflow=hidden;points=[[0,0.5],[1,0.5]];portConstraint=eastwest;rotatable=0;whiteSpace=wrap;html=1;" parent="ELSqUzEcS-WORspgMOMI-29" vertex="1">
                    <mxGeometry y="30" width="140" height="60" as="geometry"/>
                </mxCell>
                <mxCell id="6vn4g3Et8K_ua_Tb3usd-1" value="Timer" style="rounded=0;whiteSpace=wrap;html=1;" vertex="1" parent="1">
                    <mxGeometry x="785" y="440" width="150" height="75" as="geometry"/>
                </mxCell>
                <mxCell id="Gb8M8KRFbu8D07sapkAn-1" value="Timer Reset for 1 Min" style="endArrow=classic;html=1;entryX=1;entryY=0.5;entryDx=0;entryDy=0;" edge="1" parent="1" target="6vn4g3Et8K_ua_Tb3usd-1">
                    <mxGeometry x="0.0573" width="50" height="50" relative="1" as="geometry">
                        <mxPoint x="920" y="560" as="sourcePoint"/>
                        <mxPoint x="1000" y="480" as="targetPoint"/>
                        <Array as="points">
                            <mxPoint x="1000" y="560"/>
                            <mxPoint x="1000" y="478"/>
                        </Array>
                        <mxPoint as="offset"/>
                    </mxGeometry>
                </mxCell>
            </root>
        </mxGraphModel>
    </diagram>
    <diagram name="UC3_L0 - Purchase Ticket(s)" id="lDrdt8qOjN1hnjU-g2rB">
        <mxGraphModel dx="746" dy="1152" grid="1" gridSize="10" guides="1" tooltips="1" connect="1" arrows="1" fold="1" page="1" pageScale="1" pageWidth="10000" pageHeight="10000" math="0" shadow="0">
            <root>
                <mxCell id="k7uEtBU7RqGCFOYfdXls-0"/>
                <mxCell id="k7uEtBU7RqGCFOYfdXls-1" parent="k7uEtBU7RqGCFOYfdXls-0"/>
                <mxCell id="k7uEtBU7RqGCFOYfdXls-2" value="User" style="rounded=0;whiteSpace=wrap;html=1;" vertex="1" parent="k7uEtBU7RqGCFOYfdXls-1">
                    <mxGeometry x="100" y="610" width="120" height="60" as="geometry"/>
                </mxCell>
                <mxCell id="k7uEtBU7RqGCFOYfdXls-3" value="Ticket Request w/ Purchasing Information" style="endArrow=classic;html=1;exitX=0.5;exitY=0;exitDx=0;exitDy=0;entryX=0.5;entryY=1;entryDx=0;entryDy=0;" edge="1" parent="k7uEtBU7RqGCFOYfdXls-1" source="k7uEtBU7RqGCFOYfdXls-17" target="k7uEtBU7RqGCFOYfdXls-5">
                    <mxGeometry y="100" width="50" height="50" relative="1" as="geometry">
                        <mxPoint x="320" y="365" as="sourcePoint"/>
                        <mxPoint x="600" y="540" as="targetPoint"/>
                        <mxPoint as="offset"/>
                    </mxGeometry>
                </mxCell>
                <mxCell id="k7uEtBU7RqGCFOYfdXls-5" value="4" style="swimlane;whiteSpace=wrap;html=1;" vertex="1" parent="k7uEtBU7RqGCFOYfdXls-1">
                    <mxGeometry x="530" y="440" width="200" height="80" as="geometry"/>
                </mxCell>
                <mxCell id="k7uEtBU7RqGCFOYfdXls-6" value="Theme Park Ticket Processor" style="text;html=1;align=center;verticalAlign=middle;resizable=0;points=[];autosize=1;strokeColor=none;fillColor=none;" vertex="1" parent="k7uEtBU7RqGCFOYfdXls-5">
                    <mxGeometry x="10" y="35" width="180" height="30" as="geometry"/>
                </mxCell>
                <mxCell id="k7uEtBU7RqGCFOYfdXls-9" value="Ticket Request w/ Purchasing Information&lt;br&gt;(Specific Theme Park, Credit Card Info, Quantity, etc)" style="endArrow=classic;html=1;exitX=1;exitY=0.5;exitDx=0;exitDy=0;entryX=0.75;entryY=0;entryDx=0;entryDy=0;" edge="1" parent="k7uEtBU7RqGCFOYfdXls-1" source="k7uEtBU7RqGCFOYfdXls-5" target="yqOLpfzjElKhF40_pP-u-0">
                    <mxGeometry x="-0.0732" width="50" height="50" relative="1" as="geometry">
                        <mxPoint x="650" y="505" as="sourcePoint"/>
                        <mxPoint x="1080" y="600" as="targetPoint"/>
                        <Array as="points">
                            <mxPoint x="1050" y="480"/>
                        </Array>
                        <mxPoint as="offset"/>
                    </mxGeometry>
                </mxCell>
                <mxCell id="k7uEtBU7RqGCFOYfdXls-16" value="Ticket Purchase Results&lt;br&gt;(Accepted/Declined)" style="endArrow=classic;html=1;entryX=1;entryY=0.5;entryDx=0;entryDy=0;exitX=0;exitY=0.65;exitDx=0;exitDy=0;exitPerimeter=0;" edge="1" parent="k7uEtBU7RqGCFOYfdXls-1" source="yqOLpfzjElKhF40_pP-u-0" target="k7uEtBU7RqGCFOYfdXls-17">
                    <mxGeometry x="0.1321" width="50" height="50" relative="1" as="geometry">
                        <mxPoint x="1070" y="660" as="sourcePoint"/>
                        <mxPoint x="730" y="850" as="targetPoint"/>
                        <Array as="points"/>
                        <mxPoint as="offset"/>
                    </mxGeometry>
                </mxCell>
                <mxCell id="k7uEtBU7RqGCFOYfdXls-17" value="0" style="swimlane;whiteSpace=wrap;html=1;" vertex="1" parent="k7uEtBU7RqGCFOYfdXls-1">
                    <mxGeometry x="530" y="600" width="200" height="80" as="geometry"/>
                </mxCell>
                <mxCell id="k7uEtBU7RqGCFOYfdXls-18" value="User Interactor" style="text;html=1;align=center;verticalAlign=middle;resizable=0;points=[];autosize=1;strokeColor=none;fillColor=none;" vertex="1" parent="k7uEtBU7RqGCFOYfdXls-17">
                    <mxGeometry x="50" y="35" width="100" height="30" as="geometry"/>
                </mxCell>
                <mxCell id="k7uEtBU7RqGCFOYfdXls-19" value="Ticket Purchase Results&lt;br&gt;(Accepted/Declined)" style="endArrow=classic;html=1;exitX=0;exitY=0.25;exitDx=0;exitDy=0;" edge="1" parent="k7uEtBU7RqGCFOYfdXls-1" source="k7uEtBU7RqGCFOYfdXls-17">
                    <mxGeometry x="-0.0323" width="50" height="50" relative="1" as="geometry">
                        <mxPoint x="380" y="670" as="sourcePoint"/>
                        <mxPoint x="220" y="620" as="targetPoint"/>
                        <mxPoint as="offset"/>
                    </mxGeometry>
                </mxCell>
                <mxCell id="k7uEtBU7RqGCFOYfdXls-20" value="Ticket Request w/ Purchasing Information" style="endArrow=classic;html=1;exitX=1;exitY=0.75;exitDx=0;exitDy=0;" edge="1" parent="k7uEtBU7RqGCFOYfdXls-1" source="k7uEtBU7RqGCFOYfdXls-2">
                    <mxGeometry x="-0.0323" y="-3" width="50" height="50" relative="1" as="geometry">
                        <mxPoint x="540" y="630" as="sourcePoint"/>
                        <mxPoint x="530" y="655" as="targetPoint"/>
                        <mxPoint as="offset"/>
                    </mxGeometry>
                </mxCell>
                <mxCell id="yqOLpfzjElKhF40_pP-u-0" value="TP API" style="rounded=0;whiteSpace=wrap;html=1;" vertex="1" parent="k7uEtBU7RqGCFOYfdXls-1">
                    <mxGeometry x="960" y="600" width="120" height="60" as="geometry"/>
                </mxCell>
            </root>
        </mxGraphModel>
    </diagram>
</mxfile>